<svg xmlns="http://www.w3.org/2000/svg" xmlns:xlink="http://www.w3.org/1999/xlink" width="500" zoomAndPan="magnify" viewBox="0 0 375 374.999991" height="500" preserveAspectRatio="xMidYMid meet" version="1.0"><defs><g/><clipPath id="8cb83c008a"><path d="M 0 141.296875 L 92.269531 141.296875 L 92.269531 233.925781 L 0 233.925781 Z M 0 141.296875 " clip-rule="nonzero"/></clipPath><clipPath id="0ece33fcf1"><path d="M 46.136719 141.296875 C 20.65625 141.296875 0 161.980469 0 187.5 C 0 213.019531 20.65625 233.703125 46.136719 233.703125 C 71.613281 233.703125 92.269531 213.019531 92.269531 187.5 C 92.269531 161.980469 71.613281 141.296875 46.136719 141.296875 Z M 46.136719 141.296875 " clip-rule="nonzero"/></clipPath><clipPath id="d15fa7a647"><path d="M 0 0.296875 L 92.269531 0.296875 L 92.269531 92.761719 L 0 92.761719 Z M 0 0.296875 " clip-rule="nonzero"/></clipPath><clipPath id="85f2f9df75"><path d="M 46.136719 0.296875 C 20.65625 0.296875 0 20.980469 0 46.5 C 0 72.019531 20.65625 92.703125 46.136719 92.703125 C 71.613281 92.703125 92.269531 72.019531 92.269531 46.5 C 92.269531 20.980469 71.613281 0.296875 46.136719 0.296875 Z M 46.136719 0.296875 " clip-rule="nonzero"/></clipPath><clipPath id="47e8d6bdb1"><rect x="0" width="93" y="0" height="93"/></clipPath><clipPath id="83549a27b1"><path d="M 2 0.121094 L 8 0.121094 L 8 12 L 2 12 Z M 2 0.121094 " clip-rule="nonzero"/></clipPath><clipPath id="b7264b9413"><path d="M 12 0.121094 L 18 0.121094 L 18 12 L 12 12 Z M 12 0.121094 " clip-rule="nonzero"/></clipPath><clipPath id="aac2124423"><path d="M 21 0.121094 L 27 0.121094 L 27 12 L 21 12 Z M 21 0.121094 " clip-rule="nonzero"/></clipPath><clipPath id="5d9e9455fe"><path d="M 31 0.121094 L 37 0.121094 L 37 12 L 31 12 Z M 31 0.121094 " clip-rule="nonzero"/></clipPath><clipPath id="db5ae74ca1"><path d="M 40 0.121094 L 45 0.121094 L 45 12 L 40 12 Z M 40 0.121094 " clip-rule="nonzero"/></clipPath><clipPath id="b9ece1ec40"><path d="M 49 0.121094 L 55 0.121094 L 55 12 L 49 12 Z M 49 0.121094 " clip-rule="nonzero"/></clipPath><clipPath id="93d134795f"><path d="M 58 0.121094 L 64 0.121094 L 64 12 L 58 12 Z M 58 0.121094 " clip-rule="nonzero"/></clipPath><clipPath id="53849d3a0b"><path d="M 68 0.121094 L 71 0.121094 L 71 12 L 68 12 Z M 68 0.121094 " clip-rule="nonzero"/></clipPath><clipPath id="60339a1fb2"><path d="M 75 0.121094 L 81 0.121094 L 81 12 L 75 12 Z M 75 0.121094 " clip-rule="nonzero"/></clipPath><clipPath id="46d82bb673"><path d="M 84 0.121094 L 90 0.121094 L 90 12 L 84 12 Z M 84 0.121094 " clip-rule="nonzero"/></clipPath><clipPath id="56dcc65954"><path d="M 101 0.121094 L 107 0.121094 L 107 12 L 101 12 Z M 101 0.121094 " clip-rule="nonzero"/></clipPath><clipPath id="64b740da80"><path d="M 111 0.121094 L 117 0.121094 L 117 12 L 111 12 Z M 111 0.121094 " clip-rule="nonzero"/></clipPath><clipPath id="e675088c13"><path d="M 120 0.121094 L 125 0.121094 L 125 12 L 120 12 Z M 120 0.121094 " clip-rule="nonzero"/></clipPath><clipPath id="7da6d2a8f8"><path d="M 128 0.121094 L 134 0.121094 L 134 12 L 128 12 Z M 128 0.121094 " clip-rule="nonzero"/></clipPath><clipPath id="8723983184"><path d="M 138 0.121094 L 143 0.121094 L 143 12 L 138 12 Z M 138 0.121094 " clip-rule="nonzero"/></clipPath><clipPath id="bada8f3af1"><path d="M 153 0.121094 L 163 0.121094 L 163 12 L 153 12 Z M 153 0.121094 " clip-rule="nonzero"/></clipPath><clipPath id="00c64814e4"><path d="M 166 0.121094 L 171 0.121094 L 171 12 L 166 12 Z M 166 0.121094 " clip-rule="nonzero"/></clipPath><clipPath id="93f8450d44"><path d="M 174 0.121094 L 180 0.121094 L 180 12 L 174 12 Z M 174 0.121094 " clip-rule="nonzero"/></clipPath><clipPath id="afebff24ca"><path d="M 184 0.121094 L 189 0.121094 L 189 12 L 184 12 Z M 184 0.121094 " clip-rule="nonzero"/></clipPath><clipPath id="129d686343"><path d="M 192 0.121094 L 198 0.121094 L 198 12 L 192 12 Z M 192 0.121094 " clip-rule="nonzero"/></clipPath><clipPath id="acbbc7667e"><path d="M 201 0.121094 L 207 0.121094 L 207 12 L 201 12 Z M 201 0.121094 " clip-rule="nonzero"/></clipPath><clipPath id="cca1c362af"><rect x="0" width="211" y="0" height="13"/></clipPath></defs><g clip-path="url(#8cb83c008a)"><g clip-path="url(#0ece33fcf1)"><g transform="matrix(1, 0, 0, 1, 0, 141)"><g clip-path="url(#47e8d6bdb1)"><g clip-path="url(#d15fa7a647)"><g clip-path="url(#85f2f9df75)"><path fill="#3b82f6" d="M 0 0.296875 L 92.269531 0.296875 L 92.269531 92.566406 L 0 92.566406 Z M 0 0.296875 " fill-opacity="1" fill-rule="nonzero"/></g></g></g></g></g></g><path stroke-linecap="round" transform="matrix(0, 0.75, -0.75, 0, 28.566693, 156.593822)" fill="none" stroke-linejoin="miter" d="M 9.999905 10.000383 L 74.624909 10.000383 " stroke="#ffffff" stroke-width="20" stroke-opacity="1" stroke-miterlimit="4"/><path stroke-linecap="round" transform="matrix(-0.00279893, 0.749995, -0.749995, -0.00279893, 50.952131, 182.272385)" fill="none" stroke-linejoin="miter" d="M 10.002326 9.997875 L 40.429627 9.998906 " stroke="#ffffff" stroke-width="20" stroke-opacity="1" stroke-miterlimit="4"/><path stroke-linecap="round" transform="matrix(-0.510434, 0.549507, -0.549507, -0.510434, 87.910172, 195.627906)" fill="none" stroke-linejoin="miter" d="M 9.999306 9.997497 L 40.137896 10.0029 " stroke="#ffffff" stroke-width="20" stroke-opacity="1" stroke-miterlimit="4"/><g fill="#3b82f6" fill-opacity="1"><g transform="translate(95.452469, 203.595762)"><g><path d="M 8.21875 -38.515625 L 11.296875 -38.515625 C 11.847656 -38.515625 12.347656 -38.304688 12.796875 -37.890625 C 13.242188 -37.472656 13.46875 -36.9375 13.46875 -36.28125 L 13.46875 -22.234375 L 16.1875 -22.234375 L 16.1875 -36.28125 C 16.1875 -36.9375 16.40625 -37.472656 16.84375 -37.890625 C 17.289062 -38.304688 17.789062 -38.515625 18.34375 -38.515625 L 21.4375 -38.515625 C 21.914062 -38.515625 22.222656 -38.429688 22.359375 -38.265625 C 22.492188 -38.109375 22.5625 -37.820312 22.5625 -37.40625 L 22.5625 -1.203125 C 22.5625 -0.765625 22.46875 -0.453125 22.28125 -0.265625 C 22.101562 -0.0859375 21.796875 0 21.359375 0 L 18.4375 0 C 17.800781 0 17.265625 -0.210938 16.828125 -0.640625 C 16.398438 -1.078125 16.1875 -1.617188 16.1875 -2.265625 L 16.1875 -17.078125 L 13.46875 -17.078125 L 13.46875 -2.265625 C 13.46875 -1.617188 13.253906 -1.078125 12.828125 -0.640625 C 12.398438 -0.210938 11.859375 0 11.203125 0 L 8.3125 0 C 7.894531 0 7.585938 -0.0859375 7.390625 -0.265625 C 7.203125 -0.453125 7.109375 -0.765625 7.109375 -1.203125 L 7.109375 -37.40625 C 7.109375 -37.820312 7.175781 -38.109375 7.3125 -38.265625 C 7.445312 -38.429688 7.75 -38.515625 8.21875 -38.515625 Z M 8.21875 -38.515625 "/></g></g></g><g fill="#3b82f6" fill-opacity="1"><g transform="translate(127.869837, 203.595762)"><g><path d="M 12.640625 -5.984375 L 12.4375 -2.203125 C 12.414062 -1.578125 12.160156 -1.050781 11.671875 -0.625 C 11.191406 -0.207031 10.675781 0 10.125 0 L 7.015625 0 C 6.617188 0 6.347656 -0.0546875 6.203125 -0.171875 C 6.054688 -0.285156 5.984375 -0.476562 5.984375 -0.75 C 5.984375 -0.800781 5.984375 -0.851562 5.984375 -0.90625 C 5.984375 -0.96875 5.992188 -1.039062 6.015625 -1.125 L 9.515625 -37.296875 C 9.554688 -37.765625 9.679688 -38.082031 9.890625 -38.25 C 10.097656 -38.425781 10.441406 -38.515625 10.921875 -38.515625 L 16.9375 -38.515625 C 17.394531 -38.515625 17.722656 -38.425781 17.921875 -38.25 C 18.128906 -38.082031 18.257812 -37.765625 18.3125 -37.296875 L 21.84375 -1.125 C 21.84375 -1.039062 21.847656 -0.96875 21.859375 -0.90625 C 21.867188 -0.851562 21.875 -0.8125 21.875 -0.78125 C 21.875 -0.488281 21.800781 -0.285156 21.65625 -0.171875 C 21.507812 -0.0546875 21.238281 0 20.84375 0 L 17.734375 0 C 17.179688 0 16.660156 -0.207031 16.171875 -0.625 C 15.691406 -1.050781 15.429688 -1.578125 15.390625 -2.203125 L 15.1875 -5.984375 Z M 12.875 -11.03125 L 14.96875 -11.03125 L 13.9375 -32.109375 Z M 12.875 -11.03125 "/></g></g></g><g fill="#3b82f6" fill-opacity="1"><g transform="translate(158.567479, 203.595762)"><g><path d="M 7.109375 -1.140625 L 7.109375 -37.34375 C 7.109375 -37.78125 7.179688 -38.082031 7.328125 -38.25 C 7.484375 -38.425781 7.789062 -38.515625 8.25 -38.515625 L 11.265625 -38.515625 C 11.816406 -38.515625 12.320312 -38.304688 12.78125 -37.890625 C 13.238281 -37.472656 13.46875 -36.957031 13.46875 -36.34375 L 13.46875 -5.296875 L 16.65625 -5.296875 C 17.550781 -5.296875 18.226562 -5.019531 18.6875 -4.46875 C 19.144531 -3.914062 19.375 -3.132812 19.375 -2.125 L 19.375 -1.171875 C 19.375 -0.804688 19.265625 -0.519531 19.046875 -0.3125 C 18.828125 -0.101562 18.523438 0 18.140625 0 L 8.25 0 C 7.8125 0 7.507812 -0.0820312 7.34375 -0.25 C 7.1875 -0.425781 7.109375 -0.722656 7.109375 -1.140625 Z M 7.109375 -1.140625 "/></g></g></g><g fill="#3b82f6" fill-opacity="1"><g transform="translate(187.344755, 203.595762)"><g><path d="M 21.71875 -37.40625 L 18.203125 -1.234375 C 18.160156 -0.773438 18.039062 -0.453125 17.84375 -0.265625 C 17.644531 -0.0859375 17.320312 0 16.875 0 L 10.75 0 C 10.3125 0 9.988281 -0.0859375 9.78125 -0.265625 C 9.582031 -0.453125 9.46875 -0.773438 9.4375 -1.234375 L 5.90625 -37.40625 C 5.882812 -37.476562 5.875 -37.539062 5.875 -37.59375 C 5.875 -37.65625 5.875 -37.71875 5.875 -37.78125 C 5.875 -38.039062 5.945312 -38.226562 6.09375 -38.34375 C 6.238281 -38.457031 6.507812 -38.515625 6.90625 -38.515625 L 9.96875 -38.515625 C 10.53125 -38.515625 11.050781 -38.304688 11.53125 -37.890625 C 12.019531 -37.472656 12.285156 -36.945312 12.328125 -36.3125 L 13.8125 -6.484375 L 15.28125 -36.3125 C 15.332031 -36.945312 15.609375 -37.472656 16.109375 -37.890625 C 16.609375 -38.304688 17.125 -38.515625 17.65625 -38.515625 L 20.71875 -38.515625 C 21.125 -38.515625 21.394531 -38.457031 21.53125 -38.34375 C 21.675781 -38.226562 21.75 -38.03125 21.75 -37.75 C 21.75 -37.707031 21.742188 -37.65625 21.734375 -37.59375 C 21.722656 -37.539062 21.71875 -37.476562 21.71875 -37.40625 Z M 21.71875 -37.40625 "/></g></g></g><g fill="#3b82f6" fill-opacity="1"><g transform="translate(217.784436, 203.595762)"><g><path d="M 16.703125 -33.21875 L 13.53125 -33.21875 L 13.53125 -21.71875 L 17.21875 -21.71875 C 17.582031 -21.71875 17.875 -21.617188 18.09375 -21.421875 C 18.320312 -21.222656 18.4375 -20.929688 18.4375 -20.546875 L 18.4375 -19.609375 C 18.4375 -18.628906 18.203125 -17.851562 17.734375 -17.28125 C 17.273438 -16.707031 16.609375 -16.421875 15.734375 -16.421875 L 13.53125 -16.421875 L 13.53125 -5.296875 L 16.703125 -5.296875 C 17.585938 -5.296875 18.265625 -5.019531 18.734375 -4.46875 C 19.203125 -3.914062 19.4375 -3.132812 19.4375 -2.125 L 19.4375 -1.171875 C 19.4375 -0.804688 19.328125 -0.519531 19.109375 -0.3125 C 18.890625 -0.101562 18.585938 0 18.203125 0 L 8.34375 0 C 7.863281 0 7.546875 -0.0820312 7.390625 -0.25 C 7.242188 -0.425781 7.171875 -0.722656 7.171875 -1.140625 L 7.171875 -37.34375 C 7.171875 -37.78125 7.242188 -38.082031 7.390625 -38.25 C 7.546875 -38.425781 7.851562 -38.515625 8.3125 -38.515625 L 18.203125 -38.515625 C 18.585938 -38.515625 18.890625 -38.414062 19.109375 -38.21875 C 19.328125 -38.019531 19.4375 -37.726562 19.4375 -37.34375 L 19.4375 -36.40625 C 19.4375 -35.40625 19.203125 -34.625 18.734375 -34.0625 C 18.265625 -33.5 17.585938 -33.21875 16.703125 -33.21875 Z M 16.703125 -33.21875 "/></g></g></g><g fill="#3b82f6" fill-opacity="1"><g transform="translate(246.733694, 203.595762)"><g><path d="M 8.203125 -12.640625 L 11.4375 -12.640625 C 11.894531 -12.640625 12.347656 -12.503906 12.796875 -12.234375 C 13.242188 -11.972656 13.46875 -11.59375 13.46875 -11.09375 L 13.46875 -6.140625 C 13.46875 -5.828125 13.609375 -5.523438 13.890625 -5.234375 C 14.179688 -4.953125 14.53125 -4.8125 14.9375 -4.8125 C 15.375 -4.8125 15.734375 -4.953125 16.015625 -5.234375 C 16.304688 -5.523438 16.453125 -5.828125 16.453125 -6.140625 C 16.453125 -7.773438 16.226562 -9.28125 15.78125 -10.65625 C 15.332031 -12.03125 14.753906 -13.347656 14.046875 -14.609375 C 13.335938 -15.878906 12.582031 -17.144531 11.78125 -18.40625 C 10.976562 -19.664062 10.222656 -20.992188 9.515625 -22.390625 C 8.804688 -23.796875 8.226562 -25.335938 7.78125 -27.015625 C 7.332031 -28.703125 7.109375 -30.585938 7.109375 -32.671875 C 7.109375 -33.878906 7.425781 -34.972656 8.0625 -35.953125 C 8.707031 -36.941406 9.609375 -37.726562 10.765625 -38.3125 C 11.921875 -38.90625 13.269531 -39.203125 14.8125 -39.203125 C 16.414062 -39.203125 17.816406 -38.90625 19.015625 -38.3125 C 20.210938 -37.726562 21.140625 -36.941406 21.796875 -35.953125 C 22.453125 -34.972656 22.78125 -33.878906 22.78125 -32.671875 L 22.78125 -26.390625 C 22.78125 -25.703125 22.421875 -25.359375 21.703125 -25.359375 L 18.453125 -25.359375 C 17.972656 -25.359375 17.519531 -25.492188 17.09375 -25.765625 C 16.664062 -26.035156 16.453125 -26.414062 16.453125 -26.90625 L 16.453125 -32.390625 C 16.453125 -32.710938 16.304688 -33.007812 16.015625 -33.28125 C 15.734375 -33.5625 15.375 -33.703125 14.9375 -33.703125 C 14.507812 -33.703125 14.15625 -33.550781 13.875 -33.25 C 13.601562 -32.945312 13.46875 -32.660156 13.46875 -32.390625 C 13.46875 -30.859375 13.691406 -29.445312 14.140625 -28.15625 C 14.585938 -26.863281 15.164062 -25.617188 15.875 -24.421875 C 16.582031 -23.234375 17.332031 -22.007812 18.125 -20.75 C 18.914062 -19.488281 19.664062 -18.132812 20.375 -16.6875 C 21.082031 -15.25 21.660156 -13.644531 22.109375 -11.875 C 22.554688 -10.113281 22.78125 -8.101562 22.78125 -5.84375 C 22.78125 -4.65625 22.457031 -3.566406 21.8125 -2.578125 C 21.175781 -1.585938 20.273438 -0.796875 19.109375 -0.203125 C 17.953125 0.390625 16.5625 0.6875 14.9375 0.6875 C 13.34375 0.6875 11.957031 0.390625 10.78125 -0.203125 C 9.613281 -0.796875 8.707031 -1.585938 8.0625 -2.578125 C 7.425781 -3.566406 7.109375 -4.65625 7.109375 -5.84375 L 7.109375 -11.546875 C 7.109375 -12.273438 7.472656 -12.640625 8.203125 -12.640625 Z M 8.203125 -12.640625 "/></g></g></g><g fill="#3b82f6" fill-opacity="1"><g transform="translate(279.437679, 203.595762)"><g><path d="M 7.3125 -38.515625 L 19.859375 -38.515625 C 20.222656 -38.515625 20.519531 -38.414062 20.75 -38.21875 C 20.976562 -38.019531 21.09375 -37.726562 21.09375 -37.34375 L 21.09375 -36.40625 C 21.09375 -35.40625 20.851562 -34.625 20.375 -34.0625 C 19.894531 -33.5 19.21875 -33.21875 18.34375 -33.21875 L 16.875 -33.21875 L 16.875 -1.203125 C 16.875 -0.742188 16.785156 -0.425781 16.609375 -0.25 C 16.429688 -0.0820312 16.117188 0 15.671875 0 L 11.6875 0 C 11.25 0 10.941406 -0.0820312 10.765625 -0.25 C 10.597656 -0.425781 10.515625 -0.742188 10.515625 -1.203125 L 10.515625 -33.21875 L 8.828125 -33.21875 C 7.953125 -33.21875 7.273438 -33.5 6.796875 -34.0625 C 6.316406 -34.625 6.078125 -35.40625 6.078125 -36.40625 L 6.078125 -37.34375 C 6.078125 -37.726562 6.191406 -38.019531 6.421875 -38.21875 C 6.648438 -38.414062 6.945312 -38.515625 7.3125 -38.515625 Z M 7.3125 -38.515625 "/></g></g></g><g fill="#3b82f6" fill-opacity="1"><g transform="translate(309.304125, 203.595762)"><g><path d="M 7.140625 -5.96875 L 7.140625 -32.640625 C 7.140625 -33.828125 7.460938 -34.914062 8.109375 -35.90625 C 8.753906 -36.90625 9.664062 -37.703125 10.84375 -38.296875 C 12.019531 -38.898438 13.394531 -39.203125 14.96875 -39.203125 C 16.582031 -39.203125 17.972656 -38.898438 19.140625 -38.296875 C 20.304688 -37.703125 21.207031 -36.90625 21.84375 -35.90625 C 22.488281 -34.914062 22.8125 -33.828125 22.8125 -32.640625 L 22.8125 -5.96875 C 22.8125 -4.800781 22.488281 -3.710938 21.84375 -2.703125 C 21.207031 -1.703125 20.300781 -0.894531 19.125 -0.28125 C 17.957031 0.320312 16.578125 0.625 14.984375 0.625 C 13.359375 0.625 11.957031 0.320312 10.78125 -0.28125 C 9.613281 -0.894531 8.710938 -1.703125 8.078125 -2.703125 C 7.453125 -3.710938 7.140625 -4.800781 7.140625 -5.96875 Z M 13.5 -32.390625 L 13.5 -6.15625 C 13.5 -5.800781 13.640625 -5.492188 13.921875 -5.234375 C 14.210938 -4.972656 14.585938 -4.84375 15.046875 -4.84375 C 15.484375 -4.84375 15.832031 -4.988281 16.09375 -5.28125 C 16.351562 -5.582031 16.484375 -5.875 16.484375 -6.15625 L 16.484375 -32.390625 C 16.484375 -32.710938 16.335938 -33.007812 16.046875 -33.28125 C 15.765625 -33.5625 15.40625 -33.703125 14.96875 -33.703125 C 14.539062 -33.703125 14.1875 -33.5625 13.90625 -33.28125 C 13.632812 -33.007812 13.5 -32.710938 13.5 -32.390625 Z M 13.5 -32.390625 "/></g></g></g><g fill="#3b82f6" fill-opacity="1"><g transform="translate(341.950775, 203.595762)"><g><path d="M 11.265625 0 L 8.25 0 C 7.789062 0 7.484375 -0.0859375 7.328125 -0.265625 C 7.179688 -0.453125 7.109375 -0.753906 7.109375 -1.171875 L 7.109375 -37.34375 C 7.109375 -37.78125 7.179688 -38.082031 7.328125 -38.25 C 7.484375 -38.425781 7.789062 -38.515625 8.25 -38.515625 L 15.078125 -38.515625 C 16.660156 -38.515625 18.023438 -38.207031 19.171875 -37.59375 C 20.316406 -36.988281 21.203125 -36.1875 21.828125 -35.1875 C 22.460938 -34.195312 22.78125 -33.117188 22.78125 -31.953125 L 22.78125 -21.4375 C 22.78125 -20.40625 22.539062 -19.535156 22.0625 -18.828125 C 21.59375 -18.117188 20.925781 -17.554688 20.0625 -17.140625 C 20.925781 -16.867188 21.59375 -16.445312 22.0625 -15.875 C 22.539062 -15.300781 22.78125 -14.507812 22.78125 -13.5 L 22.78125 -1.171875 C 22.78125 -0.753906 22.703125 -0.453125 22.546875 -0.265625 C 22.398438 -0.0859375 22.097656 0 21.640625 0 L 18.609375 0 C 18.046875 0 17.546875 -0.210938 17.109375 -0.640625 C 16.671875 -1.078125 16.453125 -1.585938 16.453125 -2.171875 L 16.453125 -13.46875 C 16.453125 -13.789062 16.304688 -14.09375 16.015625 -14.375 C 15.734375 -14.65625 15.375 -14.796875 14.9375 -14.796875 L 13.46875 -14.796875 L 13.46875 -2.171875 C 13.46875 -1.585938 13.242188 -1.078125 12.796875 -0.640625 C 12.347656 -0.210938 11.835938 0 11.265625 0 Z M 14.9375 -33.21875 L 13.46875 -33.21875 L 13.46875 -20.0625 L 15.046875 -20.0625 C 15.453125 -20.0625 15.785156 -20.21875 16.046875 -20.53125 C 16.316406 -20.851562 16.453125 -21.1875 16.453125 -21.53125 L 16.453125 -31.90625 C 16.453125 -32.226562 16.304688 -32.523438 16.015625 -32.796875 C 15.734375 -33.078125 15.375 -33.21875 14.9375 -33.21875 Z M 14.9375 -33.21875 "/></g></g></g><g transform="matrix(1, 0, 0, 1, 128, 213)"><g clip-path="url(#cca1c362af)"><g clip-path="url(#83549a27b1)"><g fill="#3b82f6" fill-opacity="1"><g transform="translate(0.833707, 11.256605)"><g><path d="M 2.375 -10.828125 L 3.4375 -10.828125 C 3.613281 -10.828125 3.773438 -10.753906 3.921875 -10.609375 C 4.066406 -10.472656 4.140625 -10.300781 4.140625 -10.09375 L 4.140625 -6.390625 L 4.84375 -6.390625 L 4.84375 -10.09375 C 4.84375 -10.300781 4.914062 -10.472656 5.0625 -10.609375 C 5.207031 -10.753906 5.367188 -10.828125 5.546875 -10.828125 L 6.609375 -10.828125 C 6.773438 -10.828125 6.878906 -10.796875 6.921875 -10.734375 C 6.972656 -10.679688 7 -10.585938 7 -10.453125 L 7 -0.40625 C 7 -0.257812 6.96875 -0.15625 6.90625 -0.09375 C 6.84375 -0.03125 6.734375 0 6.578125 0 L 5.578125 0 C 5.367188 0 5.191406 -0.0664062 5.046875 -0.203125 C 4.910156 -0.347656 4.84375 -0.523438 4.84375 -0.734375 L 4.84375 -4.671875 L 4.140625 -4.671875 L 4.140625 -0.734375 C 4.140625 -0.523438 4.066406 -0.347656 3.921875 -0.203125 C 3.785156 -0.0664062 3.613281 0 3.40625 0 L 2.40625 0 C 2.257812 0 2.15625 -0.03125 2.09375 -0.09375 C 2.03125 -0.15625 2 -0.257812 2 -0.40625 L 2 -10.453125 C 2 -10.585938 2.019531 -10.679688 2.0625 -10.734375 C 2.101562 -10.796875 2.207031 -10.828125 2.375 -10.828125 Z M 2.375 -10.828125 "/></g></g></g></g><g clip-path="url(#b7264b9413)"><g fill="#3b82f6" fill-opacity="1"><g transform="translate(10.593006, 11.256605)"><g><path d="M 3.875 -1.609375 L 3.828125 -0.734375 C 3.828125 -0.597656 3.785156 -0.472656 3.703125 -0.359375 C 3.628906 -0.242188 3.53125 -0.15625 3.40625 -0.09375 C 3.289062 -0.03125 3.175781 0 3.0625 0 L 2 0 C 1.875 0 1.785156 -0.015625 1.734375 -0.046875 C 1.679688 -0.0859375 1.65625 -0.148438 1.65625 -0.234375 C 1.65625 -0.265625 1.65625 -0.289062 1.65625 -0.3125 C 1.65625 -0.332031 1.660156 -0.351562 1.671875 -0.375 L 2.703125 -10.421875 C 2.710938 -10.578125 2.75 -10.679688 2.8125 -10.734375 C 2.875 -10.796875 2.976562 -10.828125 3.125 -10.828125 L 5.25 -10.828125 C 5.394531 -10.828125 5.492188 -10.796875 5.546875 -10.734375 C 5.609375 -10.679688 5.644531 -10.578125 5.65625 -10.421875 L 6.71875 -0.375 C 6.71875 -0.351562 6.71875 -0.332031 6.71875 -0.3125 C 6.71875 -0.289062 6.71875 -0.273438 6.71875 -0.265625 C 6.71875 -0.171875 6.691406 -0.101562 6.640625 -0.0625 C 6.597656 -0.0195312 6.507812 0 6.375 0 L 5.3125 0 C 5.195312 0 5.078125 -0.03125 4.953125 -0.09375 C 4.835938 -0.15625 4.738281 -0.242188 4.65625 -0.359375 C 4.582031 -0.472656 4.539062 -0.597656 4.53125 -0.734375 L 4.5 -1.609375 Z M 3.9375 -3.28125 L 4.421875 -3.28125 L 4.1875 -8.890625 Z M 3.9375 -3.28125 "/></g></g></g></g><g clip-path="url(#aac2124423)"><g fill="#3b82f6" fill-opacity="1"><g transform="translate(19.764509, 11.256605)"><g><path d="M 3.4375 0 L 2.390625 0 C 2.234375 0 2.128906 -0.0234375 2.078125 -0.078125 C 2.023438 -0.140625 2 -0.25 2 -0.40625 L 2 -10.421875 C 2 -10.578125 2.023438 -10.679688 2.078125 -10.734375 C 2.128906 -10.796875 2.234375 -10.828125 2.390625 -10.828125 L 4.578125 -10.828125 C 5.066406 -10.828125 5.5 -10.726562 5.875 -10.53125 C 6.257812 -10.34375 6.554688 -10.085938 6.765625 -9.765625 C 6.972656 -9.453125 7.078125 -9.101562 7.078125 -8.71875 L 7.078125 -6.0625 C 7.078125 -5.75 7 -5.488281 6.84375 -5.28125 C 6.6875 -5.070312 6.46875 -4.90625 6.1875 -4.78125 C 6.46875 -4.707031 6.6875 -4.582031 6.84375 -4.40625 C 7 -4.238281 7.078125 -3.988281 7.078125 -3.65625 L 7.078125 -0.40625 C 7.078125 -0.25 7.050781 -0.140625 7 -0.078125 C 6.945312 -0.0234375 6.84375 0 6.6875 0 L 5.640625 0 C 5.460938 0 5.300781 -0.0664062 5.15625 -0.203125 C 5.007812 -0.347656 4.9375 -0.519531 4.9375 -0.71875 L 4.9375 -3.640625 C 4.9375 -3.722656 4.894531 -3.800781 4.8125 -3.875 C 4.738281 -3.957031 4.644531 -4 4.53125 -4 L 4.140625 -4 L 4.140625 -0.71875 C 4.140625 -0.519531 4.066406 -0.347656 3.921875 -0.203125 C 3.773438 -0.0664062 3.613281 0 3.4375 0 Z M 4.53125 -9.0625 L 4.140625 -9.0625 L 4.140625 -5.765625 L 4.5625 -5.765625 C 4.65625 -5.765625 4.738281 -5.800781 4.8125 -5.875 C 4.894531 -5.945312 4.9375 -6.019531 4.9375 -6.09375 L 4.9375 -8.703125 C 4.9375 -8.785156 4.894531 -8.863281 4.8125 -8.9375 C 4.738281 -9.019531 4.644531 -9.0625 4.53125 -9.0625 Z M 4.53125 -9.0625 "/></g></g></g></g><g clip-path="url(#5d9e9455fe)"><g fill="#3b82f6" fill-opacity="1"><g transform="translate(29.604329, 11.256605)"><g><path d="M 6.671875 -10.453125 L 5.625 -0.40625 C 5.613281 -0.25 5.578125 -0.140625 5.515625 -0.078125 C 5.453125 -0.0234375 5.347656 0 5.203125 0 L 3.109375 0 C 2.960938 0 2.859375 -0.0234375 2.796875 -0.078125 C 2.734375 -0.140625 2.695312 -0.25 2.6875 -0.40625 L 1.640625 -10.453125 C 1.628906 -10.484375 1.625 -10.503906 1.625 -10.515625 C 1.625 -10.535156 1.625 -10.554688 1.625 -10.578125 C 1.625 -10.671875 1.644531 -10.734375 1.6875 -10.765625 C 1.738281 -10.804688 1.832031 -10.828125 1.96875 -10.828125 L 3.03125 -10.828125 C 3.207031 -10.828125 3.375 -10.753906 3.53125 -10.609375 C 3.695312 -10.472656 3.785156 -10.300781 3.796875 -10.09375 L 4.15625 -1.953125 L 4.5 -10.09375 C 4.519531 -10.300781 4.609375 -10.472656 4.765625 -10.609375 C 4.929688 -10.753906 5.101562 -10.828125 5.28125 -10.828125 L 6.34375 -10.828125 C 6.476562 -10.828125 6.566406 -10.804688 6.609375 -10.765625 C 6.660156 -10.734375 6.6875 -10.671875 6.6875 -10.578125 C 6.6875 -10.554688 6.6875 -10.535156 6.6875 -10.515625 C 6.6875 -10.503906 6.679688 -10.484375 6.671875 -10.453125 Z M 6.671875 -10.453125 "/></g></g></g></g><g clip-path="url(#db5ae74ca1)"><g fill="#3b82f6" fill-opacity="1"><g transform="translate(38.703366, 11.256605)"><g><path d="M 4.15625 -4.484375 L 4.15625 -1.765625 L 5.046875 -1.765625 C 5.335938 -1.765625 5.5625 -1.671875 5.71875 -1.484375 C 5.882812 -1.296875 5.96875 -1.035156 5.96875 -0.703125 L 5.96875 -0.390625 C 5.96875 -0.265625 5.925781 -0.164062 5.84375 -0.09375 C 5.769531 -0.03125 5.671875 0 5.546875 0 L 2.390625 0 C 2.242188 0 2.144531 -0.0234375 2.09375 -0.078125 C 2.039062 -0.140625 2.015625 -0.242188 2.015625 -0.390625 L 2.015625 -10.421875 C 2.015625 -10.578125 2.039062 -10.679688 2.09375 -10.734375 C 2.144531 -10.796875 2.25 -10.828125 2.40625 -10.828125 L 5.546875 -10.828125 C 5.671875 -10.828125 5.769531 -10.789062 5.84375 -10.71875 C 5.925781 -10.65625 5.96875 -10.5625 5.96875 -10.4375 L 5.96875 -10.125 C 5.96875 -9.789062 5.882812 -9.53125 5.71875 -9.34375 C 5.5625 -9.15625 5.335938 -9.0625 5.046875 -9.0625 L 4.15625 -9.0625 L 4.15625 -6.25 L 5.203125 -6.25 C 5.328125 -6.25 5.425781 -6.210938 5.5 -6.140625 C 5.582031 -6.078125 5.625 -5.984375 5.625 -5.859375 L 5.625 -5.546875 C 5.625 -5.210938 5.546875 -4.953125 5.390625 -4.765625 C 5.234375 -4.578125 5.007812 -4.484375 4.71875 -4.484375 Z M 4.15625 -4.484375 "/></g></g></g></g><g clip-path="url(#b9ece1ec40)"><g fill="#3b82f6" fill-opacity="1"><g transform="translate(47.335388, 11.256605)"><g><path d="M 2.359375 -3.46875 L 3.484375 -3.46875 C 3.640625 -3.46875 3.785156 -3.421875 3.921875 -3.328125 C 4.066406 -3.242188 4.140625 -3.125 4.140625 -2.96875 L 4.140625 -1.984375 C 4.140625 -1.910156 4.179688 -1.832031 4.265625 -1.75 C 4.347656 -1.675781 4.4375 -1.640625 4.53125 -1.640625 C 4.644531 -1.640625 4.738281 -1.675781 4.8125 -1.75 C 4.894531 -1.832031 4.9375 -1.910156 4.9375 -1.984375 C 4.9375 -2.359375 4.878906 -2.695312 4.765625 -3 C 4.660156 -3.3125 4.519531 -3.601562 4.34375 -3.875 C 4.175781 -4.15625 3.988281 -4.429688 3.78125 -4.703125 C 3.570312 -4.972656 3.363281 -5.253906 3.15625 -5.546875 C 2.945312 -5.835938 2.753906 -6.148438 2.578125 -6.484375 C 2.410156 -6.816406 2.269531 -7.179688 2.15625 -7.578125 C 2.050781 -7.984375 2 -8.4375 2 -8.9375 C 2 -9.3125 2.101562 -9.660156 2.3125 -9.984375 C 2.519531 -10.304688 2.8125 -10.5625 3.1875 -10.75 C 3.5625 -10.9375 3.992188 -11.03125 4.484375 -11.03125 C 5.003906 -11.03125 5.457031 -10.9375 5.84375 -10.75 C 6.226562 -10.5625 6.53125 -10.304688 6.75 -9.984375 C 6.96875 -9.660156 7.078125 -9.3125 7.078125 -8.9375 L 7.078125 -7.53125 C 7.078125 -7.414062 7.046875 -7.328125 6.984375 -7.265625 C 6.929688 -7.203125 6.835938 -7.171875 6.703125 -7.171875 L 5.59375 -7.171875 C 5.4375 -7.171875 5.285156 -7.210938 5.140625 -7.296875 C 5.003906 -7.390625 4.9375 -7.515625 4.9375 -7.671875 L 4.9375 -8.84375 C 4.9375 -8.914062 4.894531 -8.988281 4.8125 -9.0625 C 4.726562 -9.144531 4.632812 -9.1875 4.53125 -9.1875 C 4.4375 -9.1875 4.347656 -9.144531 4.265625 -9.0625 C 4.179688 -8.976562 4.140625 -8.90625 4.140625 -8.84375 C 4.140625 -8.5 4.191406 -8.1875 4.296875 -7.90625 C 4.410156 -7.625 4.550781 -7.351562 4.71875 -7.09375 C 4.894531 -6.832031 5.085938 -6.570312 5.296875 -6.3125 C 5.503906 -6.050781 5.710938 -5.773438 5.921875 -5.484375 C 6.128906 -5.203125 6.320312 -4.882812 6.5 -4.53125 C 6.675781 -4.1875 6.816406 -3.796875 6.921875 -3.359375 C 7.023438 -2.929688 7.078125 -2.441406 7.078125 -1.890625 C 7.078125 -1.515625 6.972656 -1.164062 6.765625 -0.84375 C 6.554688 -0.519531 6.257812 -0.265625 5.875 -0.078125 C 5.5 0.109375 5.050781 0.203125 4.53125 0.203125 C 4.019531 0.203125 3.570312 0.109375 3.1875 -0.078125 C 2.8125 -0.265625 2.519531 -0.519531 2.3125 -0.84375 C 2.101562 -1.164062 2 -1.515625 2 -1.890625 L 2 -3.09375 C 2 -3.34375 2.117188 -3.46875 2.359375 -3.46875 Z M 2.359375 -3.46875 "/></g></g></g></g><g clip-path="url(#93d134795f)"><g fill="#3b82f6" fill-opacity="1"><g transform="translate(57.199371, 11.256605)"><g><path d="M 2.125 -10.828125 L 6.09375 -10.828125 C 6.21875 -10.828125 6.316406 -10.789062 6.390625 -10.71875 C 6.472656 -10.65625 6.515625 -10.5625 6.515625 -10.4375 L 6.515625 -10.125 C 6.515625 -9.789062 6.429688 -9.53125 6.265625 -9.34375 C 6.109375 -9.15625 5.882812 -9.0625 5.59375 -9.0625 L 5.21875 -9.0625 L 5.21875 -0.390625 C 5.21875 -0.234375 5.1875 -0.128906 5.125 -0.078125 C 5.070312 -0.0234375 4.972656 0 4.828125 0 L 3.46875 0 C 3.3125 0 3.207031 -0.0234375 3.15625 -0.078125 C 3.101562 -0.128906 3.078125 -0.234375 3.078125 -0.390625 L 3.078125 -9.0625 L 2.625 -9.0625 C 2.320312 -9.0625 2.09375 -9.15625 1.9375 -9.34375 C 1.78125 -9.53125 1.703125 -9.789062 1.703125 -10.125 L 1.703125 -10.4375 C 1.703125 -10.5625 1.742188 -10.65625 1.828125 -10.71875 C 1.910156 -10.789062 2.007812 -10.828125 2.125 -10.828125 Z M 2.125 -10.828125 "/></g></g></g></g><g clip-path="url(#53849d3a0b)"><g fill="#3b82f6" fill-opacity="1"><g transform="translate(66.161518, 11.256605)"><g><path d="M 2.71875 -10.828125 L 3.765625 -10.828125 C 3.941406 -10.828125 4.050781 -10.796875 4.09375 -10.734375 C 4.132812 -10.679688 4.15625 -10.585938 4.15625 -10.453125 L 4.15625 -0.40625 C 4.15625 -0.25 4.125 -0.140625 4.0625 -0.078125 C 4.007812 -0.0234375 3.90625 0 3.75 0 L 2.421875 0 C 2.273438 0 2.171875 -0.0234375 2.109375 -0.078125 C 2.046875 -0.140625 2.015625 -0.25 2.015625 -0.40625 L 2.015625 -10.09375 C 2.015625 -10.300781 2.085938 -10.472656 2.234375 -10.609375 C 2.378906 -10.753906 2.539062 -10.828125 2.71875 -10.828125 Z M 2.71875 -10.828125 "/></g></g></g></g><g clip-path="url(#60339a1fb2)"><g fill="#3b82f6" fill-opacity="1"><g transform="translate(73.102607, 11.256605)"><g><path d="M 2.375 -10.828125 L 3.4375 -10.828125 C 3.59375 -10.828125 3.738281 -10.769531 3.875 -10.65625 C 4.007812 -10.539062 4.097656 -10.390625 4.140625 -10.203125 L 5.21875 -6.34375 L 4.84375 -10.09375 L 4.84375 -10.140625 C 4.84375 -10.335938 4.914062 -10.5 5.0625 -10.625 C 5.21875 -10.757812 5.378906 -10.828125 5.546875 -10.828125 L 6.609375 -10.828125 C 6.773438 -10.828125 6.878906 -10.796875 6.921875 -10.734375 C 6.972656 -10.679688 7 -10.585938 7 -10.453125 L 7 -0.40625 C 7 -0.257812 6.96875 -0.15625 6.90625 -0.09375 C 6.84375 -0.03125 6.734375 0 6.578125 0 L 5.578125 0 C 5.390625 0 5.226562 -0.0625 5.09375 -0.1875 C 4.96875 -0.3125 4.882812 -0.460938 4.84375 -0.640625 L 3.765625 -4.453125 L 4.140625 -0.734375 L 4.140625 -0.703125 C 4.140625 -0.503906 4.066406 -0.335938 3.921875 -0.203125 C 3.785156 -0.0664062 3.613281 0 3.40625 0 L 2.40625 0 C 2.257812 0 2.15625 -0.03125 2.09375 -0.09375 C 2.03125 -0.15625 2 -0.257812 2 -0.40625 L 2 -10.453125 C 2 -10.585938 2.019531 -10.679688 2.0625 -10.734375 C 2.101562 -10.796875 2.207031 -10.828125 2.375 -10.828125 Z M 2.375 -10.828125 "/></g></g></g></g><g clip-path="url(#46d82bb673)"><g fill="#3b82f6" fill-opacity="1"><g transform="translate(82.86996, 11.256605)"><g><path d="M 4.484375 0.203125 C 3.984375 0.203125 3.546875 0.109375 3.171875 -0.078125 C 2.804688 -0.265625 2.519531 -0.519531 2.3125 -0.84375 C 2.101562 -1.164062 2 -1.515625 2 -1.890625 L 2 -8.9375 C 2 -9.3125 2.101562 -9.660156 2.3125 -9.984375 C 2.53125 -10.304688 2.832031 -10.5625 3.21875 -10.75 C 3.601562 -10.9375 4.054688 -11.03125 4.578125 -11.03125 C 5.078125 -11.03125 5.515625 -10.929688 5.890625 -10.734375 C 6.273438 -10.535156 6.566406 -10.28125 6.765625 -9.96875 C 6.972656 -9.65625 7.078125 -9.3125 7.078125 -8.9375 L 7.078125 -6.484375 C 7.078125 -6.367188 7.050781 -6.273438 7 -6.203125 C 6.945312 -6.140625 6.851562 -6.109375 6.71875 -6.109375 L 5.59375 -6.109375 C 5.4375 -6.109375 5.289062 -6.15625 5.15625 -6.25 C 5.019531 -6.34375 4.953125 -6.460938 4.953125 -6.609375 L 4.953125 -8.84375 C 4.953125 -8.914062 4.910156 -8.988281 4.828125 -9.0625 C 4.742188 -9.144531 4.644531 -9.1875 4.53125 -9.1875 C 4.4375 -9.1875 4.347656 -9.144531 4.265625 -9.0625 C 4.179688 -8.988281 4.140625 -8.914062 4.140625 -8.84375 L 4.140625 -1.984375 C 4.140625 -1.910156 4.179688 -1.832031 4.265625 -1.75 C 4.347656 -1.675781 4.4375 -1.640625 4.53125 -1.640625 C 4.65625 -1.640625 4.753906 -1.679688 4.828125 -1.765625 C 4.898438 -1.847656 4.9375 -1.921875 4.9375 -1.984375 L 4.9375 -3.125 C 4.695312 -3.144531 4.539062 -3.242188 4.46875 -3.421875 C 4.40625 -3.609375 4.375 -3.859375 4.375 -4.171875 L 4.375 -4.671875 C 4.375 -4.796875 4.410156 -4.890625 4.484375 -4.953125 C 4.566406 -5.015625 4.664062 -5.046875 4.78125 -5.046875 L 6.703125 -5.046875 C 6.835938 -5.046875 6.929688 -5.015625 6.984375 -4.953125 C 7.046875 -4.890625 7.078125 -4.800781 7.078125 -4.6875 L 7.078125 -1.890625 C 7.078125 -1.515625 6.96875 -1.164062 6.75 -0.84375 C 6.53125 -0.519531 6.226562 -0.265625 5.84375 -0.078125 C 5.457031 0.109375 5.003906 0.203125 4.484375 0.203125 Z M 4.484375 0.203125 "/></g></g></g></g><g fill="#3b82f6" fill-opacity="1"><g transform="translate(92.693683, 11.256605)"><g/></g></g><g clip-path="url(#56dcc65954)"><g fill="#3b82f6" fill-opacity="1"><g transform="translate(99.634772, 11.256605)"><g><path d="M 2.375 -10.828125 L 3.4375 -10.828125 C 3.613281 -10.828125 3.773438 -10.753906 3.921875 -10.609375 C 4.066406 -10.472656 4.140625 -10.300781 4.140625 -10.09375 L 4.140625 -6.390625 L 4.84375 -6.390625 L 4.84375 -10.09375 C 4.84375 -10.300781 4.914062 -10.472656 5.0625 -10.609375 C 5.207031 -10.753906 5.367188 -10.828125 5.546875 -10.828125 L 6.609375 -10.828125 C 6.773438 -10.828125 6.878906 -10.796875 6.921875 -10.734375 C 6.972656 -10.679688 7 -10.585938 7 -10.453125 L 7 -0.40625 C 7 -0.257812 6.96875 -0.15625 6.90625 -0.09375 C 6.84375 -0.03125 6.734375 0 6.578125 0 L 5.578125 0 C 5.367188 0 5.191406 -0.0664062 5.046875 -0.203125 C 4.910156 -0.347656 4.84375 -0.523438 4.84375 -0.734375 L 4.84375 -4.671875 L 4.140625 -4.671875 L 4.140625 -0.734375 C 4.140625 -0.523438 4.066406 -0.347656 3.921875 -0.203125 C 3.785156 -0.0664062 3.613281 0 3.40625 0 L 2.40625 0 C 2.257812 0 2.15625 -0.03125 2.09375 -0.09375 C 2.03125 -0.15625 2 -0.257812 2 -0.40625 L 2 -10.453125 C 2 -10.585938 2.019531 -10.679688 2.0625 -10.734375 C 2.101562 -10.796875 2.207031 -10.828125 2.375 -10.828125 Z M 2.375 -10.828125 "/></g></g></g></g><g clip-path="url(#64b740da80)"><g fill="#3b82f6" fill-opacity="1"><g transform="translate(109.394071, 11.256605)"><g><path d="M 3.875 -1.609375 L 3.828125 -0.734375 C 3.828125 -0.597656 3.785156 -0.472656 3.703125 -0.359375 C 3.628906 -0.242188 3.53125 -0.15625 3.40625 -0.09375 C 3.289062 -0.03125 3.175781 0 3.0625 0 L 2 0 C 1.875 0 1.785156 -0.015625 1.734375 -0.046875 C 1.679688 -0.0859375 1.65625 -0.148438 1.65625 -0.234375 C 1.65625 -0.265625 1.65625 -0.289062 1.65625 -0.3125 C 1.65625 -0.332031 1.660156 -0.351562 1.671875 -0.375 L 2.703125 -10.421875 C 2.710938 -10.578125 2.75 -10.679688 2.8125 -10.734375 C 2.875 -10.796875 2.976562 -10.828125 3.125 -10.828125 L 5.25 -10.828125 C 5.394531 -10.828125 5.492188 -10.796875 5.546875 -10.734375 C 5.609375 -10.679688 5.644531 -10.578125 5.65625 -10.421875 L 6.71875 -0.375 C 6.71875 -0.351562 6.71875 -0.332031 6.71875 -0.3125 C 6.71875 -0.289062 6.71875 -0.273438 6.71875 -0.265625 C 6.71875 -0.171875 6.691406 -0.101562 6.640625 -0.0625 C 6.597656 -0.0195312 6.507812 0 6.375 0 L 5.3125 0 C 5.195312 0 5.078125 -0.03125 4.953125 -0.09375 C 4.835938 -0.15625 4.738281 -0.242188 4.65625 -0.359375 C 4.582031 -0.472656 4.539062 -0.597656 4.53125 -0.734375 L 4.5 -1.609375 Z M 3.9375 -3.28125 L 4.421875 -3.28125 L 4.1875 -8.890625 Z M 3.9375 -3.28125 "/></g></g></g></g><g clip-path="url(#e675088c13)"><g fill="#3b82f6" fill-opacity="1"><g transform="translate(118.565574, 11.256605)"><g><path d="M 2 -0.375 L 2 -10.421875 C 2 -10.578125 2.023438 -10.679688 2.078125 -10.734375 C 2.128906 -10.796875 2.234375 -10.828125 2.390625 -10.828125 L 3.4375 -10.828125 C 3.613281 -10.828125 3.773438 -10.753906 3.921875 -10.609375 C 4.066406 -10.472656 4.140625 -10.304688 4.140625 -10.109375 L 4.140625 -1.765625 L 5.03125 -1.765625 C 5.332031 -1.765625 5.5625 -1.671875 5.71875 -1.484375 C 5.875 -1.304688 5.953125 -1.046875 5.953125 -0.703125 L 5.953125 -0.390625 C 5.953125 -0.265625 5.910156 -0.164062 5.828125 -0.09375 C 5.753906 -0.03125 5.65625 0 5.53125 0 L 2.390625 0 C 2.234375 0 2.128906 -0.0234375 2.078125 -0.078125 C 2.023438 -0.140625 2 -0.238281 2 -0.375 Z M 2 -0.375 "/></g></g></g></g><g clip-path="url(#7da6d2a8f8)"><g fill="#3b82f6" fill-opacity="1"><g transform="translate(127.181487, 11.256605)"><g><path d="M 3.875 -1.609375 L 3.828125 -0.734375 C 3.828125 -0.597656 3.785156 -0.472656 3.703125 -0.359375 C 3.628906 -0.242188 3.53125 -0.15625 3.40625 -0.09375 C 3.289062 -0.03125 3.175781 0 3.0625 0 L 2 0 C 1.875 0 1.785156 -0.015625 1.734375 -0.046875 C 1.679688 -0.0859375 1.65625 -0.148438 1.65625 -0.234375 C 1.65625 -0.265625 1.65625 -0.289062 1.65625 -0.3125 C 1.65625 -0.332031 1.660156 -0.351562 1.671875 -0.375 L 2.703125 -10.421875 C 2.710938 -10.578125 2.75 -10.679688 2.8125 -10.734375 C 2.875 -10.796875 2.976562 -10.828125 3.125 -10.828125 L 5.25 -10.828125 C 5.394531 -10.828125 5.492188 -10.796875 5.546875 -10.734375 C 5.609375 -10.679688 5.644531 -10.578125 5.65625 -10.421875 L 6.71875 -0.375 C 6.71875 -0.351562 6.71875 -0.332031 6.71875 -0.3125 C 6.71875 -0.289062 6.71875 -0.273438 6.71875 -0.265625 C 6.71875 -0.171875 6.691406 -0.101562 6.640625 -0.0625 C 6.597656 -0.0195312 6.507812 0 6.375 0 L 5.3125 0 C 5.195312 0 5.078125 -0.03125 4.953125 -0.09375 C 4.835938 -0.15625 4.738281 -0.242188 4.65625 -0.359375 C 4.582031 -0.472656 4.539062 -0.597656 4.53125 -0.734375 L 4.5 -1.609375 Z M 3.9375 -3.28125 L 4.421875 -3.28125 L 4.1875 -8.890625 Z M 3.9375 -3.28125 "/></g></g></g></g><g clip-path="url(#8723983184)"><g fill="#3b82f6" fill-opacity="1"><g transform="translate(136.35299, 11.256605)"><g><path d="M 2 -0.375 L 2 -10.421875 C 2 -10.578125 2.023438 -10.679688 2.078125 -10.734375 C 2.128906 -10.796875 2.234375 -10.828125 2.390625 -10.828125 L 3.4375 -10.828125 C 3.613281 -10.828125 3.773438 -10.753906 3.921875 -10.609375 C 4.066406 -10.472656 4.140625 -10.304688 4.140625 -10.109375 L 4.140625 -1.765625 L 5.03125 -1.765625 C 5.332031 -1.765625 5.5625 -1.671875 5.71875 -1.484375 C 5.875 -1.304688 5.953125 -1.046875 5.953125 -0.703125 L 5.953125 -0.390625 C 5.953125 -0.265625 5.910156 -0.164062 5.828125 -0.09375 C 5.753906 -0.03125 5.65625 0 5.53125 0 L 2.390625 0 C 2.234375 0 2.128906 -0.0234375 2.078125 -0.078125 C 2.023438 -0.140625 2 -0.238281 2 -0.375 Z M 2 -0.375 "/></g></g></g></g><g fill="#3b82f6" fill-opacity="1"><g transform="translate(144.968903, 11.256605)"><g/></g></g><g clip-path="url(#bada8f3af1)"><g fill="#3b82f6" fill-opacity="1"><g transform="translate(151.909992, 11.256605)"><g><path d="M 2 -10.828125 L 3.0625 -10.828125 C 3.238281 -10.828125 3.40625 -10.753906 3.5625 -10.609375 C 3.71875 -10.472656 3.804688 -10.300781 3.828125 -10.09375 L 4.203125 -1.671875 L 4.71875 -10.09375 C 4.738281 -10.300781 4.828125 -10.472656 4.984375 -10.609375 C 5.140625 -10.753906 5.304688 -10.828125 5.484375 -10.828125 L 6.296875 -10.828125 C 6.410156 -10.828125 6.523438 -10.796875 6.640625 -10.734375 C 6.753906 -10.671875 6.851562 -10.582031 6.9375 -10.46875 C 7.019531 -10.351562 7.0625 -10.226562 7.0625 -10.09375 L 7.578125 -1.671875 L 7.953125 -10.09375 C 7.960938 -10.300781 8.046875 -10.472656 8.203125 -10.609375 C 8.367188 -10.753906 8.535156 -10.828125 8.703125 -10.828125 L 9.78125 -10.828125 C 9.914062 -10.828125 10.003906 -10.804688 10.046875 -10.765625 C 10.097656 -10.722656 10.125 -10.660156 10.125 -10.578125 C 10.125 -10.554688 10.125 -10.535156 10.125 -10.515625 C 10.125 -10.492188 10.125 -10.472656 10.125 -10.453125 L 9.078125 -0.40625 C 9.066406 -0.25 9.023438 -0.140625 8.953125 -0.078125 C 8.890625 -0.0234375 8.785156 0 8.640625 0 L 6.546875 0 C 6.398438 0 6.289062 -0.0234375 6.21875 -0.078125 C 6.15625 -0.140625 6.117188 -0.25 6.109375 -0.40625 L 5.890625 -6.734375 L 5.65625 -0.40625 C 5.65625 -0.25 5.617188 -0.140625 5.546875 -0.078125 C 5.484375 -0.0234375 5.375 0 5.21875 0 L 3.140625 0 C 2.992188 0 2.882812 -0.0234375 2.8125 -0.078125 C 2.75 -0.140625 2.710938 -0.25 2.703125 -0.40625 L 1.65625 -10.453125 C 1.65625 -10.472656 1.65625 -10.492188 1.65625 -10.515625 C 1.65625 -10.535156 1.65625 -10.554688 1.65625 -10.578125 C 1.65625 -10.660156 1.675781 -10.722656 1.71875 -10.765625 C 1.769531 -10.804688 1.863281 -10.828125 2 -10.828125 Z M 2 -10.828125 "/></g></g></g></g><g clip-path="url(#00c64814e4)"><g fill="#3b82f6" fill-opacity="1"><g transform="translate(164.455296, 11.256605)"><g><path d="M 4.15625 -4.484375 L 4.15625 -1.765625 L 5.046875 -1.765625 C 5.335938 -1.765625 5.5625 -1.671875 5.71875 -1.484375 C 5.882812 -1.296875 5.96875 -1.035156 5.96875 -0.703125 L 5.96875 -0.390625 C 5.96875 -0.265625 5.925781 -0.164062 5.84375 -0.09375 C 5.769531 -0.03125 5.671875 0 5.546875 0 L 2.390625 0 C 2.242188 0 2.144531 -0.0234375 2.09375 -0.078125 C 2.039062 -0.140625 2.015625 -0.242188 2.015625 -0.390625 L 2.015625 -10.421875 C 2.015625 -10.578125 2.039062 -10.679688 2.09375 -10.734375 C 2.144531 -10.796875 2.25 -10.828125 2.40625 -10.828125 L 5.546875 -10.828125 C 5.671875 -10.828125 5.769531 -10.789062 5.84375 -10.71875 C 5.925781 -10.65625 5.96875 -10.5625 5.96875 -10.4375 L 5.96875 -10.125 C 5.96875 -9.789062 5.882812 -9.53125 5.71875 -9.34375 C 5.5625 -9.15625 5.335938 -9.0625 5.046875 -9.0625 L 4.15625 -9.0625 L 4.15625 -6.25 L 5.203125 -6.25 C 5.328125 -6.25 5.425781 -6.210938 5.5 -6.140625 C 5.582031 -6.078125 5.625 -5.984375 5.625 -5.859375 L 5.625 -5.546875 C 5.625 -5.210938 5.546875 -4.953125 5.390625 -4.765625 C 5.234375 -4.578125 5.007812 -4.484375 4.71875 -4.484375 Z M 4.15625 -4.484375 "/></g></g></g></g><g clip-path="url(#93f8450d44)"><g fill="#3b82f6" fill-opacity="1"><g transform="translate(173.087318, 11.256605)"><g><path d="M 3.875 -1.609375 L 3.828125 -0.734375 C 3.828125 -0.597656 3.785156 -0.472656 3.703125 -0.359375 C 3.628906 -0.242188 3.53125 -0.15625 3.40625 -0.09375 C 3.289062 -0.03125 3.175781 0 3.0625 0 L 2 0 C 1.875 0 1.785156 -0.015625 1.734375 -0.046875 C 1.679688 -0.0859375 1.65625 -0.148438 1.65625 -0.234375 C 1.65625 -0.265625 1.65625 -0.289062 1.65625 -0.3125 C 1.65625 -0.332031 1.660156 -0.351562 1.671875 -0.375 L 2.703125 -10.421875 C 2.710938 -10.578125 2.75 -10.679688 2.8125 -10.734375 C 2.875 -10.796875 2.976562 -10.828125 3.125 -10.828125 L 5.25 -10.828125 C 5.394531 -10.828125 5.492188 -10.796875 5.546875 -10.734375 C 5.609375 -10.679688 5.644531 -10.578125 5.65625 -10.421875 L 6.71875 -0.375 C 6.71875 -0.351562 6.71875 -0.332031 6.71875 -0.3125 C 6.71875 -0.289062 6.71875 -0.273438 6.71875 -0.265625 C 6.71875 -0.171875 6.691406 -0.101562 6.640625 -0.0625 C 6.597656 -0.0195312 6.507812 0 6.375 0 L 5.3125 0 C 5.195312 0 5.078125 -0.03125 4.953125 -0.09375 C 4.835938 -0.15625 4.738281 -0.242188 4.65625 -0.359375 C 4.582031 -0.472656 4.539062 -0.597656 4.53125 -0.734375 L 4.5 -1.609375 Z M 3.9375 -3.28125 L 4.421875 -3.28125 L 4.1875 -8.890625 Z M 3.9375 -3.28125 "/></g></g></g></g><g clip-path="url(#afebff24ca)"><g fill="#3b82f6" fill-opacity="1"><g transform="translate(182.258821, 11.256605)"><g><path d="M 2 -0.375 L 2 -10.421875 C 2 -10.578125 2.023438 -10.679688 2.078125 -10.734375 C 2.128906 -10.796875 2.234375 -10.828125 2.390625 -10.828125 L 3.4375 -10.828125 C 3.613281 -10.828125 3.773438 -10.753906 3.921875 -10.609375 C 4.066406 -10.472656 4.140625 -10.304688 4.140625 -10.109375 L 4.140625 -1.765625 L 5.03125 -1.765625 C 5.332031 -1.765625 5.5625 -1.671875 5.71875 -1.484375 C 5.875 -1.304688 5.953125 -1.046875 5.953125 -0.703125 L 5.953125 -0.390625 C 5.953125 -0.265625 5.910156 -0.164062 5.828125 -0.09375 C 5.753906 -0.03125 5.65625 0 5.53125 0 L 2.390625 0 C 2.234375 0 2.128906 -0.0234375 2.078125 -0.078125 C 2.023438 -0.140625 2 -0.238281 2 -0.375 Z M 2 -0.375 "/></g></g></g></g><g clip-path="url(#129d686343)"><g fill="#3b82f6" fill-opacity="1"><g transform="translate(190.874734, 11.256605)"><g><path d="M 2.125 -10.828125 L 6.09375 -10.828125 C 6.21875 -10.828125 6.316406 -10.789062 6.390625 -10.71875 C 6.472656 -10.65625 6.515625 -10.5625 6.515625 -10.4375 L 6.515625 -10.125 C 6.515625 -9.789062 6.429688 -9.53125 6.265625 -9.34375 C 6.109375 -9.15625 5.882812 -9.0625 5.59375 -9.0625 L 5.21875 -9.0625 L 5.21875 -0.390625 C 5.21875 -0.234375 5.1875 -0.128906 5.125 -0.078125 C 5.070312 -0.0234375 4.972656 0 4.828125 0 L 3.46875 0 C 3.3125 0 3.207031 -0.0234375 3.15625 -0.078125 C 3.101562 -0.128906 3.078125 -0.234375 3.078125 -0.390625 L 3.078125 -9.0625 L 2.625 -9.0625 C 2.320312 -9.0625 2.09375 -9.15625 1.9375 -9.34375 C 1.78125 -9.53125 1.703125 -9.789062 1.703125 -10.125 L 1.703125 -10.4375 C 1.703125 -10.5625 1.742188 -10.65625 1.828125 -10.71875 C 1.910156 -10.789062 2.007812 -10.828125 2.125 -10.828125 Z M 2.125 -10.828125 "/></g></g></g></g><g clip-path="url(#acbbc7667e)"><g fill="#3b82f6" fill-opacity="1"><g transform="translate(199.836881, 11.256605)"><g><path d="M 2.375 -10.828125 L 3.4375 -10.828125 C 3.613281 -10.828125 3.773438 -10.753906 3.921875 -10.609375 C 4.066406 -10.472656 4.140625 -10.300781 4.140625 -10.09375 L 4.140625 -6.390625 L 4.84375 -6.390625 L 4.84375 -10.09375 C 4.84375 -10.300781 4.914062 -10.472656 5.0625 -10.609375 C 5.207031 -10.753906 5.367188 -10.828125 5.546875 -10.828125 L 6.609375 -10.828125 C 6.773438 -10.828125 6.878906 -10.796875 6.921875 -10.734375 C 6.972656 -10.679688 7 -10.585938 7 -10.453125 L 7 -0.40625 C 7 -0.257812 6.96875 -0.15625 6.90625 -0.09375 C 6.84375 -0.03125 6.734375 0 6.578125 0 L 5.578125 0 C 5.367188 0 5.191406 -0.0664062 5.046875 -0.203125 C 4.910156 -0.347656 4.84375 -0.523438 4.84375 -0.734375 L 4.84375 -4.671875 L 4.140625 -4.671875 L 4.140625 -0.734375 C 4.140625 -0.523438 4.066406 -0.347656 3.921875 -0.203125 C 3.785156 -0.0664062 3.613281 0 3.40625 0 L 2.40625 0 C 2.257812 0 2.15625 -0.03125 2.09375 -0.09375 C 2.03125 -0.15625 2 -0.257812 2 -0.40625 L 2 -10.453125 C 2 -10.585938 2.019531 -10.679688 2.0625 -10.734375 C 2.101562 -10.796875 2.207031 -10.828125 2.375 -10.828125 Z M 2.375 -10.828125 "/></g></g></g></g></g></g></svg>